<?xml version="1.0" encoding="UTF-8" standalone="no"?>
<svg
   xmlns:dc="http://purl.org/dc/elements/1.1/"
   xmlns:cc="http://creativecommons.org/ns#"
   xmlns:rdf="http://www.w3.org/1999/02/22-rdf-syntax-ns#"
   xmlns:svg="http://www.w3.org/2000/svg"
   xmlns="http://www.w3.org/2000/svg"
   xmlns:sodipodi="http://sodipodi.sourceforge.net/DTD/sodipodi-0.dtd"
   xmlns:inkscape="http://www.inkscape.org/namespaces/inkscape"
   width="256"
   height="256"
   viewBox="0 0 256 256"
   id="svg2"
   version="1.1"
   inkscape:version="0.91+devel r14164 custom"
   sodipodi:docname="folder-parent.svg">
  <metadata
     id="metadata10">
    <rdf:RDF>
      <cc:Work
         rdf:about="">
        <dc:format>image/svg+xml</dc:format>
        <dc:type
           rdf:resource="http://purl.org/dc/dcmitype/StillImage" />
        <dc:title></dc:title>
      </cc:Work>
    </rdf:RDF>
  </metadata>
  <defs
     id="defs8" />
  <sodipodi:namedview
     pagecolor="#ffffff"
     bordercolor="#666666"
     borderopacity="1"
     objecttolerance="10"
     gridtolerance="10"
     guidetolerance="10"
     inkscape:pageopacity="0"
     inkscape:pageshadow="2"
     inkscape:window-width="1346"
     inkscape:window-height="929"
     id="namedview6"
     showgrid="false"
     inkscape:zoom="2.8945312"
     inkscape:cx="128"
     inkscape:cy="128"
     inkscape:window-x="151"
     inkscape:window-y="63"
     inkscape:window-maximized="0"
     inkscape:current-layer="svg2" />
  <path
     style="fill:#268bd2;fill-rule:evenodd"
     d="m 101.52159,42 c -2.249997,0 -5.499997,2 -9.499997,6 l -80,64 c -16.0625003,16.05859 -16.0000003,16 0,32 l 80,64 c 11.999997,12 15.249997,6 15.999997,-18 0.25,-8 0,-18 0,-30 0.16797,0 0.32813,0 0.5,0 79.5,0 111.5,-48 111,-112.5 -31.5,32.5 -63.5,48.5 -111.5,47.5 0.0117,-11.472656 0.23828,-21.265625 0,-29 -0.5,-16 -2,-24 -6.5,-24 z"
     id="path4"
     inkscape:connector-curvature="0" />
</svg>
